<svg xmlns="http://www.w3.org/2000/svg" width="1600" height="900" viewBox="0 0 1600 900" role="img" aria-hidden="true"><rect width="1600" height="900" fill="#D9CBB7"/><circle cx="38" cy="38" r="5.9" fill="#2A211C"/><circle cx="113" cy="38" r="7.2" fill="#2A211C"/><circle cx="188" cy="38" r="8.6" fill="#2A211C"/><circle cx="263" cy="38" r="10.0" fill="#2A211C"/><circle cx="338" cy="38" r="11.4" fill="#2A211C"/><circle cx="413" cy="38" r="12.7" fill="#2A211C"/><circle cx="488" cy="38" r="14.1" fill="#2A211C"/><circle cx="563" cy="38" r="15.5" fill="#2A211C"/><circle cx="638" cy="38" r="16.9" fill="#2A211C"/><circle cx="713" cy="38" r="18.2" fill="#2A211C"/><circle cx="788" cy="38" r="19.6" fill="#2A211C"/><circle cx="863" cy="38" r="21.0" fill="#2A211C"/><circle cx="938" cy="38" r="22.4" fill="#2A211C"/><circle cx="1013" cy="38" r="23.7" fill="#2A211C"/><circle cx="1088" cy="38" r="25.1" fill="#2A211C"/><circle cx="1163" cy="38" r="26.5" fill="#2A211C"/><circle cx="1238" cy="38" r="27.9" fill="#2A211C"/><circle cx="1313" cy="38" r="29.2" fill="#2A211C"/><circle cx="1388" cy="38" r="30.6" fill="#2A211C"/><circle cx="1463" cy="38" r="32.0" fill="#2A211C"/><circle cx="1538" cy="38" r="33.4" fill="#2A211C"/><circle cx="38" cy="113" r="5.9" fill="#2A211C"/><circle cx="113" cy="113" r="7.2" fill="#2A211C"/><circle cx="188" cy="113" r="8.6" fill="#2A211C"/><circle cx="263" cy="113" r="10.0" fill="#2A211C"/><circle cx="338" cy="113" r="11.4" fill="#2A211C"/><circle cx="413" cy="113" r="12.7" fill="#2A211C"/><circle cx="488" cy="113" r="14.1" fill="#2A211C"/><circle cx="563" cy="113" r="15.5" fill="#2A211C"/><circle cx="638" cy="113" r="16.9" fill="#2A211C"/><circle cx="713" cy="113" r="18.2" fill="#2A211C"/><circle cx="788" cy="113" r="19.6" fill="#2A211C"/><circle cx="863" cy="113" r="21.0" fill="#2A211C"/><circle cx="938" cy="113" r="22.4" fill="#2A211C"/><circle cx="1013" cy="113" r="23.7" fill="#2A211C"/><circle cx="1088" cy="113" r="25.1" fill="#2A211C"/><circle cx="1163" cy="113" r="26.5" fill="#2A211C"/><circle cx="1238" cy="113" r="27.9" fill="#2A211C"/><circle cx="1313" cy="113" r="29.2" fill="#2A211C"/><circle cx="1388" cy="113" r="30.6" fill="#2A211C"/><circle cx="1463" cy="113" r="32.0" fill="#2A211C"/><circle cx="1538" cy="113" r="33.4" fill="#2A211C"/><circle cx="38" cy="188" r="5.9" fill="#2A211C"/><circle cx="113" cy="188" r="7.2" fill="#2A211C"/><circle cx="188" cy="188" r="8.6" fill="#2A211C"/><circle cx="263" cy="188" r="10.0" fill="#2A211C"/><circle cx="338" cy="188" r="11.4" fill="#2A211C"/><circle cx="413" cy="188" r="12.7" fill="#2A211C"/><circle cx="488" cy="188" r="14.1" fill="#2A211C"/><circle cx="563" cy="188" r="15.5" fill="#2A211C"/><circle cx="638" cy="188" r="16.9" fill="#2A211C"/><circle cx="713" cy="188" r="18.2" fill="#2A211C"/><circle cx="788" cy="188" r="19.6" fill="#2A211C"/><circle cx="863" cy="188" r="21.0" fill="#2A211C"/><circle cx="938" cy="188" r="22.4" fill="#2A211C"/><circle cx="1013" cy="188" r="23.7" fill="#2A211C"/><circle cx="1088" cy="188" r="25.1" fill="#2A211C"/><circle cx="1163" cy="188" r="26.5" fill="#2A211C"/><circle cx="1238" cy="188" r="27.9" fill="#2A211C"/><circle cx="1313" cy="188" r="29.2" fill="#2A211C"/><circle cx="1388" cy="188" r="30.6" fill="#2A211C"/><circle cx="1463" cy="188" r="32.0" fill="#2A211C"/><circle cx="1538" cy="188" r="33.4" fill="#2A211C"/><circle cx="38" cy="263" r="5.9" fill="#2A211C"/><circle cx="113" cy="263" r="7.2" fill="#2A211C"/><circle cx="188" cy="263" r="8.6" fill="#2A211C"/><circle cx="263" cy="263" r="10.0" fill="#2A211C"/><circle cx="338" cy="263" r="11.4" fill="#2A211C"/><circle cx="413" cy="263" r="12.7" fill="#2A211C"/><circle cx="488" cy="263" r="14.1" fill="#2A211C"/><circle cx="563" cy="263" r="15.5" fill="#2A211C"/><circle cx="638" cy="263" r="16.9" fill="#2A211C"/><circle cx="713" cy="263" r="18.2" fill="#2A211C"/><circle cx="788" cy="263" r="19.6" fill="#2A211C"/><circle cx="863" cy="263" r="21.0" fill="#2A211C"/><circle cx="938" cy="263" r="22.4" fill="#2A211C"/><circle cx="1013" cy="263" r="23.7" fill="#2A211C"/><circle cx="1088" cy="263" r="25.1" fill="#2A211C"/><circle cx="1163" cy="263" r="26.5" fill="#2A211C"/><circle cx="1238" cy="263" r="27.9" fill="#2A211C"/><circle cx="1313" cy="263" r="29.2" fill="#2A211C"/><circle cx="1388" cy="263" r="30.6" fill="#2A211C"/><circle cx="1463" cy="263" r="32.0" fill="#2A211C"/><circle cx="1538" cy="263" r="33.4" fill="#2A211C"/><circle cx="38" cy="338" r="5.9" fill="#2A211C"/><circle cx="113" cy="338" r="7.2" fill="#2A211C"/><circle cx="188" cy="338" r="8.6" fill="#2A211C"/><circle cx="263" cy="338" r="10.0" fill="#2A211C"/><circle cx="338" cy="338" r="11.4" fill="#2A211C"/><circle cx="413" cy="338" r="12.7" fill="#2A211C"/><circle cx="488" cy="338" r="14.1" fill="#2A211C"/><circle cx="563" cy="338" r="15.5" fill="#2A211C"/><circle cx="638" cy="338" r="16.9" fill="#2A211C"/><circle cx="713" cy="338" r="18.2" fill="#2A211C"/><circle cx="788" cy="338" r="19.6" fill="#2A211C"/><circle cx="863" cy="338" r="21.0" fill="#2A211C"/><circle cx="938" cy="338" r="22.4" fill="#2A211C"/><circle cx="1013" cy="338" r="23.7" fill="#2A211C"/><circle cx="1088" cy="338" r="25.1" fill="#2A211C"/><circle cx="1163" cy="338" r="26.5" fill="#2A211C"/><circle cx="1238" cy="338" r="27.9" fill="#2A211C"/><circle cx="1313" cy="338" r="29.2" fill="#2A211C"/><circle cx="1388" cy="338" r="30.6" fill="#2A211C"/><circle cx="1463" cy="338" r="32.0" fill="#2A211C"/><circle cx="1538" cy="338" r="33.4" fill="#2A211C"/><circle cx="38" cy="413" r="5.9" fill="#2A211C"/><circle cx="113" cy="413" r="7.2" fill="#2A211C"/><circle cx="188" cy="413" r="8.6" fill="#2A211C"/><circle cx="263" cy="413" r="10.0" fill="#2A211C"/><circle cx="338" cy="413" r="11.4" fill="#2A211C"/><circle cx="413" cy="413" r="12.7" fill="#2A211C"/><circle cx="488" cy="413" r="14.1" fill="#2A211C"/><circle cx="563" cy="413" r="15.5" fill="#2A211C"/><circle cx="638" cy="413" r="16.9" fill="#2A211C"/><circle cx="713" cy="413" r="18.2" fill="#2A211C"/><circle cx="788" cy="413" r="19.6" fill="#2A211C"/><circle cx="863" cy="413" r="21.0" fill="#2A211C"/><circle cx="938" cy="413" r="22.4" fill="#2A211C"/><circle cx="1013" cy="413" r="23.7" fill="#2A211C"/><circle cx="1088" cy="413" r="25.1" fill="#2A211C"/><circle cx="1163" cy="413" r="26.5" fill="#2A211C"/><circle cx="1238" cy="413" r="27.9" fill="#2A211C"/><circle cx="1313" cy="413" r="29.2" fill="#2A211C"/><circle cx="1388" cy="413" r="30.6" fill="#2A211C"/><circle cx="1463" cy="413" r="32.0" fill="#2A211C"/><circle cx="1538" cy="413" r="33.4" fill="#2A211C"/><circle cx="38" cy="488" r="5.9" fill="#2A211C"/><circle cx="113" cy="488" r="7.2" fill="#2A211C"/><circle cx="188" cy="488" r="8.6" fill="#2A211C"/><circle cx="263" cy="488" r="10.0" fill="#2A211C"/><circle cx="338" cy="488" r="11.4" fill="#2A211C"/><circle cx="413" cy="488" r="12.7" fill="#2A211C"/><circle cx="488" cy="488" r="14.1" fill="#2A211C"/><circle cx="563" cy="488" r="15.5" fill="#2A211C"/><circle cx="638" cy="488" r="16.9" fill="#2A211C"/><circle cx="713" cy="488" r="18.2" fill="#2A211C"/><circle cx="788" cy="488" r="19.6" fill="#2A211C"/><circle cx="863" cy="488" r="21.0" fill="#2A211C"/><circle cx="938" cy="488" r="22.4" fill="#2A211C"/><circle cx="1013" cy="488" r="23.7" fill="#2A211C"/><circle cx="1088" cy="488" r="25.1" fill="#2A211C"/><circle cx="1163" cy="488" r="26.5" fill="#2A211C"/><circle cx="1238" cy="488" r="27.9" fill="#2A211C"/><circle cx="1313" cy="488" r="29.2" fill="#2A211C"/><circle cx="1388" cy="488" r="30.6" fill="#2A211C"/><circle cx="1463" cy="488" r="32.0" fill="#2A211C"/><circle cx="1538" cy="488" r="33.4" fill="#2A211C"/><circle cx="38" cy="563" r="5.9" fill="#2A211C"/><circle cx="113" cy="563" r="7.2" fill="#2A211C"/><circle cx="188" cy="563" r="8.6" fill="#2A211C"/><circle cx="263" cy="563" r="10.0" fill="#2A211C"/><circle cx="338" cy="563" r="11.4" fill="#2A211C"/><circle cx="413" cy="563" r="12.7" fill="#2A211C"/><circle cx="488" cy="563" r="14.1" fill="#2A211C"/><circle cx="563" cy="563" r="15.5" fill="#2A211C"/><circle cx="638" cy="563" r="16.9" fill="#2A211C"/><circle cx="713" cy="563" r="18.2" fill="#2A211C"/><circle cx="788" cy="563" r="19.6" fill="#2A211C"/><circle cx="863" cy="563" r="21.0" fill="#2A211C"/><circle cx="938" cy="563" r="22.4" fill="#2A211C"/><circle cx="1013" cy="563" r="23.7" fill="#2A211C"/><circle cx="1088" cy="563" r="25.1" fill="#2A211C"/><circle cx="1163" cy="563" r="26.5" fill="#2A211C"/><circle cx="1238" cy="563" r="27.9" fill="#2A211C"/><circle cx="1313" cy="563" r="29.2" fill="#2A211C"/><circle cx="1388" cy="563" r="30.6" fill="#2A211C"/><circle cx="1463" cy="563" r="32.0" fill="#2A211C"/><circle cx="1538" cy="563" r="33.4" fill="#2A211C"/><circle cx="38" cy="638" r="5.9" fill="#2A211C"/><circle cx="113" cy="638" r="7.2" fill="#2A211C"/><circle cx="188" cy="638" r="8.6" fill="#2A211C"/><circle cx="263" cy="638" r="10.0" fill="#2A211C"/><circle cx="338" cy="638" r="11.4" fill="#2A211C"/><circle cx="413" cy="638" r="12.7" fill="#2A211C"/><circle cx="488" cy="638" r="14.1" fill="#2A211C"/><circle cx="563" cy="638" r="15.5" fill="#2A211C"/><circle cx="638" cy="638" r="16.9" fill="#2A211C"/><circle cx="713" cy="638" r="18.2" fill="#2A211C"/><circle cx="788" cy="638" r="19.6" fill="#2A211C"/><circle cx="863" cy="638" r="21.0" fill="#2A211C"/><circle cx="938" cy="638" r="22.4" fill="#2A211C"/><circle cx="1013" cy="638" r="23.7" fill="#2A211C"/><circle cx="1088" cy="638" r="25.1" fill="#2A211C"/><circle cx="1163" cy="638" r="26.5" fill="#2A211C"/><circle cx="1238" cy="638" r="27.9" fill="#2A211C"/><circle cx="1313" cy="638" r="29.2" fill="#2A211C"/><circle cx="1388" cy="638" r="30.6" fill="#2A211C"/><circle cx="1463" cy="638" r="32.0" fill="#2A211C"/><circle cx="1538" cy="638" r="33.4" fill="#2A211C"/><circle cx="38" cy="713" r="5.9" fill="#2A211C"/><circle cx="113" cy="713" r="7.2" fill="#2A211C"/><circle cx="188" cy="713" r="8.6" fill="#2A211C"/><circle cx="263" cy="713" r="10.0" fill="#2A211C"/><circle cx="338" cy="713" r="11.4" fill="#2A211C"/><circle cx="413" cy="713" r="12.7" fill="#2A211C"/><circle cx="488" cy="713" r="14.1" fill="#2A211C"/><circle cx="563" cy="713" r="15.5" fill="#2A211C"/><circle cx="638" cy="713" r="16.9" fill="#2A211C"/><circle cx="713" cy="713" r="18.2" fill="#2A211C"/><circle cx="788" cy="713" r="19.6" fill="#2A211C"/><circle cx="863" cy="713" r="21.0" fill="#2A211C"/><circle cx="938" cy="713" r="22.4" fill="#2A211C"/><circle cx="1013" cy="713" r="23.7" fill="#2A211C"/><circle cx="1088" cy="713" r="25.1" fill="#2A211C"/><circle cx="1163" cy="713" r="26.5" fill="#2A211C"/><circle cx="1238" cy="713" r="27.9" fill="#2A211C"/><circle cx="1313" cy="713" r="29.2" fill="#2A211C"/><circle cx="1388" cy="713" r="30.6" fill="#2A211C"/><circle cx="1463" cy="713" r="32.0" fill="#2A211C"/><circle cx="1538" cy="713" r="33.4" fill="#2A211C"/><circle cx="38" cy="788" r="5.9" fill="#2A211C"/><circle cx="113" cy="788" r="7.2" fill="#2A211C"/><circle cx="188" cy="788" r="8.6" fill="#2A211C"/><circle cx="263" cy="788" r="10.0" fill="#2A211C"/><circle cx="338" cy="788" r="11.4" fill="#2A211C"/><circle cx="413" cy="788" r="12.7" fill="#2A211C"/><circle cx="488" cy="788" r="14.1" fill="#2A211C"/><circle cx="563" cy="788" r="15.5" fill="#2A211C"/><circle cx="638" cy="788" r="16.9" fill="#2A211C"/><circle cx="713" cy="788" r="18.2" fill="#2A211C"/><circle cx="788" cy="788" r="19.6" fill="#2A211C"/><circle cx="863" cy="788" r="21.0" fill="#2A211C"/><circle cx="938" cy="788" r="22.4" fill="#2A211C"/><circle cx="1013" cy="788" r="23.7" fill="#2A211C"/><circle cx="1088" cy="788" r="25.1" fill="#2A211C"/><circle cx="1163" cy="788" r="26.5" fill="#2A211C"/><circle cx="1238" cy="788" r="27.9" fill="#2A211C"/><circle cx="1313" cy="788" r="29.2" fill="#2A211C"/><circle cx="1388" cy="788" r="30.6" fill="#2A211C"/><circle cx="1463" cy="788" r="32.0" fill="#2A211C"/><circle cx="1538" cy="788" r="33.4" fill="#2A211C"/><circle cx="38" cy="863" r="5.9" fill="#2A211C"/><circle cx="113" cy="863" r="7.2" fill="#2A211C"/><circle cx="188" cy="863" r="8.6" fill="#2A211C"/><circle cx="263" cy="863" r="10.0" fill="#2A211C"/><circle cx="338" cy="863" r="11.4" fill="#2A211C"/><circle cx="413" cy="863" r="12.7" fill="#2A211C"/><circle cx="488" cy="863" r="14.1" fill="#2A211C"/><circle cx="563" cy="863" r="15.5" fill="#2A211C"/><circle cx="638" cy="863" r="16.9" fill="#2A211C"/><circle cx="713" cy="863" r="18.2" fill="#2A211C"/><circle cx="788" cy="863" r="19.6" fill="#2A211C"/><circle cx="863" cy="863" r="21.0" fill="#2A211C"/><circle cx="938" cy="863" r="22.4" fill="#2A211C"/><circle cx="1013" cy="863" r="23.7" fill="#2A211C"/><circle cx="1088" cy="863" r="25.1" fill="#2A211C"/><circle cx="1163" cy="863" r="26.5" fill="#2A211C"/><circle cx="1238" cy="863" r="27.9" fill="#2A211C"/><circle cx="1313" cy="863" r="29.2" fill="#2A211C"/><circle cx="1388" cy="863" r="30.6" fill="#2A211C"/><circle cx="1463" cy="863" r="32.0" fill="#2A211C"/><circle cx="1538" cy="863" r="33.4" fill="#2A211C"/></svg>
